<svg width="20" height="20" viewBox="0 0 20 20" fill="none" xmlns="http://www.w3.org/2000/svg">
    <path
        d="M17.7363 6.89649L12.7773 6.17579L10.5605 1.68165C10.5 1.5586 10.4003 1.45899 10.2773 1.39844C9.9687 1.2461 9.5937 1.37305 9.4394 1.68165L7.2226 6.17579L2.26362 6.89649C2.1269 6.91602 2.0019 6.98048 1.9062 7.07813C1.7905 7.19705 1.72674 7.35704 1.72894 7.52294C1.73113 7.68884 1.79911 7.84709 1.91791 7.9629L5.50581 11.4609L4.65815 16.4004C4.63827 16.5153 4.65099 16.6335 4.69485 16.7415C4.73872 16.8496 4.81198 16.9432 4.90633 17.0117C5.00068 17.0802 5.11234 17.1209 5.22866 17.1292C5.34497 17.1375 5.46128 17.113 5.5644 17.0586L9.99995 14.7266L14.4355 17.0586C14.5566 17.1231 14.6972 17.1445 14.832 17.1211C15.1718 17.0625 15.4003 16.7402 15.3418 16.4004L14.4941 11.4609L18.082 7.9629C18.1796 7.8672 18.2441 7.74219 18.2636 7.60548C18.3164 7.26368 18.0781 6.94727 17.7363 6.89649ZM12.9843 10.9688L13.6894 15.0762L9.99995 13.1387L6.3105 15.0781L7.01557 10.9707L4.0312 8.06055L8.1562 7.46094L9.99995 3.72462L11.8437 7.46094L15.9687 8.06055L12.9843 10.9688Z"
        fill="black" />
</svg>
